<?xml version="1.0" encoding="utf-8"?>
<!-- Generator: Adobe Illustrator 27.8.0, SVG Export Plug-In . SVG Version: 6.00 Build 0)  -->
<svg version="1.1" id="Glyph" xmlns="http://www.w3.org/2000/svg" xmlns:xlink="http://www.w3.org/1999/xlink" x="0px" y="0px"
	 viewBox="0 0 512 512" style="enable-background:new 0 0 512 512;" xml:space="preserve">
<style type="text/css">
	.st0{fill:#FFDA00;}
</style>
<g>
	<path class="st0" d="M495.8,340.3c-2.4-2.2-6-3-9.5-0.8c-36.7,23.8-79.4,36.4-123.3,36.4c-125.1,0-226.9-101.8-226.9-226.9
		c0-43.9,12.6-86.6,36.4-123.3c4.2-6.4-3-14.9-10-11.6C71.9,55,13.3,145.7,13.3,245.1c0,139.8,113.7,253.6,253.6,253.6
		c99.4,0,190.1-58.5,231.1-149.1C499.5,346.1,498.3,342.5,495.8,340.3L495.8,340.3z"/>
	<path class="st0" d="M224,104c30.9,0,56,25.1,56,56c0,4.4,3.6,8,8,8s8-3.6,8-8c0-30.9,25.1-56,56-56c4.4,0,8-3.6,8-8s-3.6-8-8-8
		c-30.9,0-56-25.1-56-56c0-4.4-3.6-8-8-8s-8,3.6-8,8c0,30.9-25.1,56-56,56c-4.4,0-8,3.6-8,8S219.6,104,224,104z"/>
	<path class="st0" d="M373.3,178.7c25,0,45.3,20.3,45.3,45.3c0,4.4,3.6,8,8,8s8-3.6,8-8c0-25,20.3-45.3,45.3-45.3c4.4,0,8-3.6,8-8
		s-3.6-8-8-8c-25,0-45.3-20.3-45.3-45.3c0-4.4-3.6-8-8-8s-8,3.6-8,8c0,25-20.3,45.3-45.3,45.3c-4.4,0-8,3.6-8,8
		C365.3,175.1,368.9,178.7,373.3,178.7z"/>
	<path class="st0" d="M338.7,224c0-4.4-3.6-8-8-8s-8,3.6-8,8c0,19.1-15.6,34.7-34.7,34.7c-4.4,0-8,3.6-8,8s3.6,8,8,8
		c19.1,0,34.7,15.6,34.7,34.7c0,4.4,3.6,8,8,8s8-3.6,8-8c0-19.1,15.6-34.7,34.7-34.7c4.4,0,8-3.6,8-8s-3.6-8-8-8
		C354.2,258.7,338.7,243.1,338.7,224z"/>
</g>
</svg>
