<?xml version="1.0" encoding="utf-8"?>
<!-- Generator: Adobe Illustrator 27.8.0, SVG Export Plug-In . SVG Version: 6.00 Build 0)  -->
<svg version="1.1" id="Layer_1" xmlns="http://www.w3.org/2000/svg" xmlns:xlink="http://www.w3.org/1999/xlink" x="0px" y="0px"
	 viewBox="0 0 1920 1080" style="enable-background:new 0 0 1920 1080;" xml:space="preserve">
<style type="text/css">
	.st0{fill:#3F95FF;}
	.st1{fill:#1A1A1A;}
	.st2{fill:#FFFFFF;}
</style>
<path class="st0" d="M1283.5,1080h-31.1c-0.1-0.6-0.2-1.1-0.3-1.7C1262.4,1079.4,1272.9,1080,1283.5,1080L1283.5,1080z"/>
<rect class="st1" width="1920" height="1078"/>
<path class="st2" d="M1252.2,1078.3c10.3,1.1,20.8,1.7,31.3,1.7h-31.1C1252.3,1079.4,1252.2,1078.9,1252.2,1078.3L1252.2,1078.3z"/>
<g>
	<path class="st2" d="M363.5,177.2c-38.7,9.3-45.6,16.9-54,59.7c-8.4-42.9-15.2-50.4-54-59.7c38.7-9.3,45.6-16.9,54-59.7
		C318,160.3,324.8,167.9,363.5,177.2z"/>
	<path class="st2" d="M370.3,138.5c-12.2,2.9-14.4,5.3-17,18.8c-2.6-13.5-4.8-15.9-17-18.8c12.2-2.9,14.4-5.3,17-18.8
		C356,133.2,358.1,135.6,370.3,138.5L370.3,138.5z"/>
	<path class="st2" d="M273.9,209.2c-7.4,1.8-8.7,3.2-10.3,11.4c-1.6-8.2-2.9-9.6-10.3-11.4c7.4-1.8,8.7-3.2,10.3-11.4
		C265.2,205.9,266.5,207.4,273.9,209.2z"/>
</g>
<g>
	<path class="st2" d="M670.1,762c-74,17.8-87.1,32.2-103.1,114.2c-16.1-82-29.1-96.4-103.1-114.2c74-17.8,87.1-32.2,103.1-114.2
		C583,729.8,596,744.2,670.1,762L670.1,762z"/>
	<path class="st2" d="M683.1,688.1c-23.3,5.6-27.4,10.1-32.5,36c-5.1-25.8-9.2-30.4-32.5-36c23.3-5.6,27.4-10.1,32.5-36
		C655.7,678,659.8,682.5,683.1,688.1z"/>
	<path class="st2" d="M498.8,823.1c-14.2,3.4-16.6,6.2-19.7,21.8c-3.1-15.7-5.6-18.4-19.7-21.8c14.2-3.4,16.6-6.2,19.7-21.8
		C482.2,817,484.7,819.7,498.8,823.1z"/>
</g>
<g>
	<path class="st2" d="M216.6,387.1c-25.1,6-29.5,10.9-34.9,38.6c-5.4-27.7-9.9-32.6-34.9-38.6c25.1-6,29.5-10.9,34.9-38.6
		C187.1,376.2,191.5,381,216.6,387.1z"/>
	<path class="st2" d="M221,362c-7.9,1.9-9.3,3.4-11,12.2c-1.7-8.7-3.1-10.3-11-12.2c7.9-1.9,9.3-3.4,11-12.2
		C211.7,358.6,213.1,360.2,221,362z"/>
	<path class="st2" d="M158.6,407.8c-4.8,1.1-5.6,2.1-6.7,7.4c-1-5.3-1.9-6.2-6.7-7.4c4.8-1.1,5.6-2.1,6.7-7.4
		C153,405.7,153.8,406.6,158.6,407.8z"/>
</g>
<g>
	<path class="st2" d="M663,285.1c-40.3,9.7-47.4,17.5-56.1,62.1c-8.7-44.6-15.8-52.4-56.1-62.1c40.3-9.7,47.4-17.5,56.1-62.1
		C615.6,267.6,622.7,275.4,663,285.1z"/>
	<path class="st2" d="M670.1,244.9c-12.7,3.1-14.9,5.5-17.7,19.6c-2.8-14.1-5-16.5-17.7-19.6c12.7-3.1,14.9-5.5,17.7-19.6
		C655.1,239.4,657.4,241.8,670.1,244.9z"/>
	<path class="st2" d="M569.8,318.4c-7.7,1.9-9.1,3.4-10.7,11.9c-1.7-8.5-3-10-10.7-11.9c7.7-1.9,9.1-3.4,10.7-11.9
		C560.7,315,562.1,316.5,569.8,318.4z"/>
</g>
<g>
	<path class="st2" d="M227.3,876.2c-38.7,9.3-45.6,16.8-54,59.7c-8.4-42.9-15.2-50.4-54-59.7c38.7-9.3,45.6-16.8,54-59.7
		C181.8,859.3,188.6,866.9,227.3,876.2z"/>
	<path class="st2" d="M234.1,837.5c-12.2,2.9-14.3,5.3-17,18.8c-2.7-13.5-4.8-15.9-17-18.8c12.2-2.9,14.3-5.3,17-18.8
		C219.8,832.2,221.9,834.6,234.1,837.5z"/>
	<path class="st2" d="M137.7,908.2c-7.4,1.8-8.7,3.2-10.3,11.4c-1.6-8.2-2.9-9.6-10.3-11.4c7.4-1.8,8.7-3.2,10.3-11.4
		C129,904.9,130.3,906.4,137.7,908.2z"/>
</g>
<g>
	<path class="st2" d="M1145.1,285.1C1035,311.5,1015.6,333,991.7,454.9C967.8,333,948.5,311.5,838.3,285.1
		c110.1-26.4,129.5-47.9,153.4-169.8C1015.6,237.2,1035,258.6,1145.1,285.1z"/>
	<path class="st2" d="M1164.5,175.2c-34.7,8.3-40.8,15.1-48.3,53.5c-7.5-38.4-13.6-45.2-48.3-53.5c34.7-8.3,40.8-15.1,48.3-53.5
		C1123.7,160.1,1129.8,166.8,1164.5,175.2z"/>
	<path class="st2" d="M890.4,376c-21.1,5.1-24.8,9.2-29.3,32.5c-4.6-23.3-8.3-27.4-29.3-32.5c21.1-5.1,24.8-9.2,29.3-32.5
		C865.7,366.9,869.4,371,890.4,376z"/>
</g>
<g>
	<path class="st2" d="M1191,799.5c-43.3,10.4-50.9,18.8-60.3,66.7c-9.4-47.9-17-56.3-60.3-66.7c43.3-10.4,50.9-18.8,60.3-66.7
		C1140.1,780.7,1147.7,789.1,1191,799.5L1191,799.5z"/>
	<path class="st2" d="M1198.6,756.4c-13.6,3.3-16,5.9-19,21c-3-15.1-5.3-17.7-19-21c13.6-3.3,16-5.9,19-21
		C1182.6,750.4,1185,753.1,1198.6,756.4z"/>
	<path class="st2" d="M1090.9,835.3c-8.3,2-9.7,3.6-11.5,12.8c-1.8-9.2-3.2-10.8-11.5-12.8c8.3-2,9.7-3.6,11.5-12.8
		C1081.2,831.7,1082.7,833.3,1090.9,835.3z"/>
</g>
</svg>
